<?xml version="1.0" encoding="utf-8"?>
<!-- Generator: Adobe Illustrator 27.5.0, SVG Export Plug-In . SVG Version: 6.00 Build 0)  -->
<svg version="1.1" id="Layer_1" xmlns="http://www.w3.org/2000/svg" xmlns:xlink="http://www.w3.org/1999/xlink" x="0px" y="0px"
	 viewBox="0 0 900 900" style="enable-background:new 0 0 900 900;" xml:space="preserve">
<g>
	<path style="opacity:0.7;fill:#9A92AE;" d="M159.773,764.733h601.738c6.45,0,11.727-5.277,11.727-11.727v-2.786
		c0-6.45-5.277-11.727-11.727-11.727H159.773c-6.45,0-11.727,5.277-11.727,11.727v2.786
		C148.046,759.456,153.323,764.733,159.773,764.733z"/>
	<g>
		<g>
			<g>
				<path style="fill:#9A92AE;" d="M321.022,311.338L321.022,311.338c5.262-5.612,4.806-14.271-1.018-19.341l-0.659-0.574
					c-5.824-5.07-14.811-4.631-20.072,0.981l0,0c-5.262,5.612-4.806,14.271,1.018,19.34l0.659,0.574
					C306.774,317.388,315.76,316.949,321.022,311.338z"/>
				<path style="fill:#EF673B;" d="M309.847,338.571l13.84,12.049l39.3-41.913l-13.84-12.049c-9.59-8.348-23.344-9.457-34.02-3.664
					c-2.697,1.459-5.191,3.353-7.379,5.687c-5.421,5.782-7.902,13.138-7.531,20.364
					C300.606,326.271,303.846,333.347,309.847,338.571z"/>
				<path style="fill:#FFA733;" d="M322.352,325.235l13.84,12.049l26.795-28.577l-13.84-12.049
					c-9.59-8.348-23.344-9.457-34.02-3.664c-1.834,4.043-2.633,8.4-2.406,12.715C313.111,312.935,316.351,320.011,322.352,325.235z"
					/>
			</g>
			<path style="fill:#2F3663;" d="M322.971,350.458c4.175,3.728,16.514-2.501,27.559-13.938
				c11.045-11.438,16.628-23.735,12.447-27.475c-3.293-2.955-11.7,0.323-20.542,7.479c-2.328,1.902-4.703,4.064-7.005,6.452
				c-2.693,2.793-5.068,5.633-7.047,8.392C322.232,339.905,319.816,347.634,322.971,350.458z"/>
			<path style="fill:#FFFFFF;" d="M328.383,331.369c3.198,3.523,8.638,4.528,13.046,2.129c5.035-2.74,6.816-8.915,3.966-13.777
				c-0.76-1.297-1.777-2.38-2.96-3.196c-2.328,1.902-4.703,4.064-7.005,6.452C332.736,325.77,330.362,328.611,328.383,331.369z"/>
		</g>
		<polyline style="fill:none;stroke:#9A92AE;stroke-width:5.6119;stroke-miterlimit:10;" points="251.124,446.875 215.247,331.068 
			287.898,282.671 303.146,295.634 		"/>
		<g>
			<g>
				<path style="fill:#464C6B;" d="M288.853,289.16c-3.378,0-6.126-2.602-6.126-5.801c0-3.199,2.748-5.801,6.126-5.801
					c3.378,0,6.127,2.602,6.127,5.801C294.98,286.558,292.232,289.16,288.853,289.16z"/>
				<path style="fill:#9A92AE;" d="M288.853,280.364c1.831,0,3.321,1.344,3.321,2.995c0,1.652-1.49,2.995-3.321,2.995
					c-1.831,0-3.321-1.344-3.321-2.995C285.533,281.708,287.022,280.364,288.853,280.364L288.853,280.364z M288.853,274.752
					c-4.933,0-8.933,3.853-8.933,8.607c0,4.754,4,8.607,8.933,8.607c4.934,0,8.933-3.854,8.933-8.607
					C297.786,278.606,293.787,274.752,288.853,274.752L288.853,274.752z"/>
			</g>
		</g>
		<path style="fill:#FFA733;" d="M215.008,462.619h92.426l0,0c0-10.141-8.221-18.362-18.362-18.362H233.37
			C223.229,444.257,215.008,452.478,215.008,462.619L215.008,462.619z"/>
		
			<rect x="271.702" y="439.666" transform="matrix(-1 -1.224647e-16 1.224647e-16 -1 560.0795 884.3819)" style="fill:#0E2244;" width="16.675" height="5.049"/>
		<g>
			<g>
				<path style="fill:#464C6B;" d="M215.961,341.492c-5.349,0-9.7-4.147-9.7-9.244s4.352-9.244,9.7-9.244
					c5.349,0,9.7,4.147,9.7,9.244S221.31,341.492,215.961,341.492z"/>
				<path style="fill:#9A92AE;" d="M215.961,325.81c3.801,0,6.894,2.888,6.894,6.438c0,3.55-3.093,6.438-6.894,6.438
					c-3.801,0-6.894-2.888-6.894-6.438C209.067,328.698,212.16,325.81,215.961,325.81L215.961,325.81z M215.961,320.198
					c-6.907,0-12.506,5.395-12.506,12.05s5.599,12.05,12.506,12.05c6.907,0,12.506-5.395,12.506-12.05
					S222.868,320.198,215.961,320.198L215.961,320.198z"/>
			</g>
		</g>
	</g>
	
		<rect x="724.81" y="486.899" transform="matrix(-1 -1.224647e-16 1.224647e-16 -1 1474.317 1241.342)" style="fill:#464C6B;" width="24.696" height="267.544"/>
	<g>
		<path style="fill:#5A1E3B;" d="M492.252,564.59l147.407,11.062l40.903-207.604l-99.01-0.347
			c-27.74-0.097-51.739,19.288-57.479,46.427L492.252,564.59z"/>
		<path style="fill:#F02B2B;" d="M669.637,565.939l24.519-181.663c1.092-8.093-4.636-15.609-12.729-16.701h0
			c-8.093-1.092-15.609,4.636-16.701,12.729l-24.519,181.663c-1.092,8.093,4.636,15.609,12.729,16.701l0,0
			C661.029,579.761,668.545,574.033,669.637,565.939z"/>
		<g>
			<g>
				<rect x="568.395" y="590.825" style="fill:#9A92AE;" width="17.272" height="101.873"/>
				<path style="fill:#0E2244;" d="M568.395,596.754v23.023l17.272-6.683v-15.586C581.344,597.303,573.025,596.957,568.395,596.754z
					"/>
			</g>
			<path style="fill:#0E2244;" d="M537.015,599.062h77.176c4.245,0,7.718-3.473,7.718-7.718l0,0c0-4.245-3.473-7.718-7.718-7.718
				h-77.176c-4.245,0-7.718,3.473-7.718,7.718l0,0C529.297,595.589,532.77,599.062,537.015,599.062z"/>
			<path style="fill:#5A1E3B;" d="M499.243,589.8h88.705c10.613,0,19.297-8.684,19.297-19.297l0,0
				c0-10.613-8.684-19.297-19.297-19.297h-88.705c-10.613,0-19.297,8.684-19.297,19.297l0,0
				C479.946,581.117,488.63,589.8,499.243,589.8z"/>
			<path style="fill:#F02B2B;" d="M577.192,590.315h70.954c10.613,0,19.297-8.684,19.297-19.297v0
				c0-10.613-8.684-19.297-19.297-19.297h-70.954c-10.613,0-19.297,8.684-19.297,19.297v0
				C557.894,581.631,566.578,590.315,577.192,590.315z"/>
			<g>
				<g>
					<path style="fill:#0E2244;" d="M503.829,726.66h10.805c0-12.908,10.502-23.41,23.41-23.41h78.72
						c12.909,0,23.41,10.502,23.41,23.41h10.805c0-18.866-15.349-34.214-34.215-34.214h-78.72
						C519.177,692.445,503.829,707.794,503.829,726.66z"/>
				</g>
				
					<rect x="564.541" y="676.238" transform="matrix(-1 -1.224647e-16 1.224647e-16 -1 1154.2927 1368.9401)" style="fill:#0E2244;" width="25.211" height="16.464"/>
			</g>
			<g>
				<circle style="fill:#0E2244;" cx="645.988" cy="737.107" r="8.975"/>
				<path style="fill:#2F3663;" d="M633.045,736.316h24.562v-2.727c0-6.522-5.288-11.81-11.81-11.81h-0.942
					c-6.523,0-11.81,5.288-11.81,11.81V736.316z"/>
				<circle style="fill:#0E2244;" cx="508.724" cy="737.107" r="8.975"/>
				<path style="fill:#2F3663;" d="M495.782,736.316h24.562v-2.727c0-6.522-5.288-11.81-11.81-11.81h-0.942
					c-6.522,0-11.81,5.288-11.81,11.81V736.316z"/>
			</g>
			
				<rect x="569.487" y="695.789" transform="matrix(-1 -1.224647e-16 1.224647e-16 -1 1153.2756 1423.9926)" style="fill:#0E2244;" width="14.302" height="32.414"/>
			<g>
				<circle style="fill:#0E2244;" cx="576.336" cy="737.107" r="8.975"/>
				<path style="fill:#2F3663;" d="M563.393,736.316h24.562v-2.727c0-6.522-5.287-11.81-11.81-11.81h-0.942
					c-6.523,0-11.81,5.288-11.81,11.81V736.316z"/>
			</g>
		</g>
	</g>
	<path style="fill:#2F3663;" d="M526.789,730.947v7.353V730.947z"/>
	
		<rect x="288.507" y="486.899" transform="matrix(-1 -1.224647e-16 1.224647e-16 -1 601.7104 1241.342)" style="fill:#464C6B;" width="24.696" height="267.544"/>
	<path style="fill:#A84835;" d="M772.7,495.955H218.345v-22.48c0-6.008,4.87-10.878,10.878-10.878h532.599
		c6.008,0,10.878,4.87,10.878,10.878V495.955z"/>
	<g>
		<g>
			<path style="fill:#FBAF3D;" d="M504.858,425.868v37.878H536.5v-37.878c0-1.667-1.358-3.025-3.025-3.025h-25.592
				C506.216,422.842,504.858,424.201,504.858,425.868z"/>
			<g>
				<path style="fill:#EF673B;" d="M536.11,457.264c0.413-0.237,10.127-5.926,10.994-15.892c0.331-3.799-1.107-6.154-2.372-7.459
					c-3.477-3.591-9.254-3.384-9.901-3.35l0.253,4.624c1.173-0.055,4.627,0.185,6.331,1.956c0.869,0.904,1.221,2.156,1.076,3.828
					c-0.659,7.583-8.607,12.231-8.686,12.278L536.11,457.264z"/>
			</g>
			<path style="fill:#CD4335;" d="M512.672,446.96h9.068c3.143,0,5.692-2.548,5.692-5.692l0,0c0-3.143-2.548-5.692-5.692-5.692
				h-9.068c-3.143,0-5.692,2.548-5.692,5.692l0,0C506.98,444.412,509.529,446.96,512.672,446.96z"/>
		</g>
		<path style="fill:#EF673B;" d="M519.645,463.746H536.5v-37.878c0-1.667-1.358-3.025-3.025-3.025h-1.019
			c-0.046,1.976-0.586,17.087-4.831,27.969C523.936,460.288,520.648,463.082,519.645,463.746z"/>
	</g>
	<g>
		<g>
			
				<rect x="158.762" y="363.023" transform="matrix(-0.9847 0.1743 -0.1743 -0.9847 389.6487 762.8359)" style="fill:#FBAF3D;" width="5.145" height="71.002"/>
			
				<rect x="152.58" y="361.652" transform="matrix(-0.9847 0.1743 -0.1743 -0.9847 375.6301 711.671)" style="fill:#EF673B;" width="7.975" height="21.352"/>
		</g>
		<g>
			<polygon style="fill:#62324A;" points="173.435,442.857 178.562,442.427 172.629,371.673 169.527,367.147 167.502,372.103 			"/>
		</g>
		<g>
			<polygon style="fill:#122A4C;" points="180.561,446.472 185.611,447.455 199.18,377.762 197.428,372.562 194.129,376.779 			"/>
		</g>
		<g>
			<polygon style="fill:#9A92AE;" points="169.207,462.684 191.197,462.684 198.407,404.469 161.997,404.469 			"/>
			<polygon style="fill:#C7C7CC;" points="160.916,462.684 182.906,462.684 186.15,404.469 153.706,404.469 			"/>
		</g>
	</g>
	<rect x="178.95" y="552.101" style="fill:#464C6B;" width="123.482" height="24.696"/>
	<rect x="612.681" y="552.101" style="fill:#464C6B;" width="133.183" height="24.696"/>
	<g>
		<path style="fill:#0E2244;" d="M536.936,577.3h-62.964c-9.374,0-17.043-7.669-17.043-17.043v-7.574
			c0-9.374,7.669-17.043,17.043-17.043h62.964c9.374,0,17.043,7.669,17.043,17.043v7.574
			C553.979,569.631,546.309,577.3,536.936,577.3z"/>
		<g>
			<path style="fill:#FAA887;" d="M442.65,706.455c-11.596-54.975-22.217-114.059-8.543-143.394
				c7.165-15.37,30.041-29.613,84.405-52.553c2.842-1.199,6.063-2.558,6.868-2.952c-0.36,0.176-0.625,0.339-0.812,0.452l17.9,29.998
				c-1.759,1.061-3.628,1.863-10.494,4.76c-53.012,22.37-64.177,32.16-66.505,35.445c-10.239,22.68-4.512,73.566,1.893,124.378
				L442.65,706.455z M465.369,578.356l-0.001,0.001L465.369,578.356z"/>
			<g>
				<path style="fill:#0E2244;" d="M443.561,707.93l-9.788,23.672c-1.69,3.73-5.123,6.363-9.147,7.015l0,0
					c-3.211,0.513-5.508,3.396-5.305,6.659l0.001,0.015c0.229,3.68,3.512,6.394,7.147,5.906l10.106-1.239
					c5.244-0.643,10.052-3.255,13.462-7.312l24.234-28.836c1.09-1.887,1.43-4.119,0.952-6.248l0,0
					c-1.083-4.821-5.956-7.751-10.692-6.428L443.561,707.93z"/>
				<rect x="467.182" y="705.967" style="fill:#0E2244;" width="7.223" height="38.084"/>
				<path style="fill:#5273CE;" d="M442.585,705.181l-9.788,23.672c-1.69,3.73-5.123,6.363-9.147,7.015l0,0
					c-3.211,0.513-5.508,3.396-5.305,6.659l0.001,0.015c0.229,3.68,3.512,6.394,7.147,5.906l7.241-0.888
					c7.086-0.869,13.583-4.398,18.19-9.88l22.371-26.619c1.09-1.887,1.43-4.119,0.952-6.248l0,0
					c-1.083-4.821-5.956-7.751-10.692-6.428L442.585,705.181z"/>
				
					<line style="fill:none;stroke:#0E2244;stroke-width:1.5661;stroke-linecap:round;stroke-miterlimit:10;" x1="434.972" y1="722.849" x2="441.023" y2="725.597"/>
				
					<line style="fill:none;stroke:#0E2244;stroke-width:1.5661;stroke-linecap:round;stroke-miterlimit:10;" x1="436.729" y1="718.138" x2="442.78" y2="720.886"/>
				
					<line style="fill:none;stroke:#0E2244;stroke-width:1.5661;stroke-linecap:round;stroke-miterlimit:10;" x1="438.486" y1="713.623" x2="444.537" y2="716.371"/>
			</g>
		</g>
		<g>
			<path style="fill:#FFCAB0;" d="M575.472,510.786c0.142-0.085,0.327-0.199,0.554-0.327c-1.094,0.497-4.005,1.718-6.618,2.826
				c-21.062,8.891-37.395,16.475-49.922,23.335c-10.51,5.723-18.335,10.95-24.016,16.006c-5.042,4.46-8.408,8.791-10.467,13.208
				c-13.663,29.342-3.054,88.424,8.55,143.401l24.712-3.863c-6.405-50.816-12.129-101.703-1.889-124.384
				c1.079-1.52,4.062-4.446,12.243-9.374c4.147-2.514,9.643-5.539,16.915-9.146c9.26-4.63,21.417-10.211,37.338-16.93
				c6.874-2.897,8.735-3.692,10.495-4.757L575.472,510.786z"/>
			<g>
				<path style="fill:#0E2244;" d="M494.463,710.706l-9.788,23.672c-1.69,3.73-5.123,6.363-9.147,7.015l0,0
					c-3.211,0.513-5.508,3.396-5.305,6.659l0.001,0.015c0.229,3.68,3.512,6.394,7.147,5.906l10.106-1.239
					c5.244-0.643,10.052-3.255,13.462-7.312l24.234-28.836c1.09-1.887,1.43-4.119,0.952-6.248l0,0
					c-1.083-4.821-5.956-7.751-10.692-6.428L494.463,710.706z"/>
				<rect x="518.084" y="708.743" style="fill:#0E2244;" width="7.223" height="38.084"/>
				<path style="fill:#5273CE;" d="M493.487,707.958l-9.788,23.672c-1.69,3.73-5.123,6.363-9.147,7.015l0,0
					c-3.211,0.513-5.508,3.396-5.305,6.659l0.001,0.015c0.229,3.68,3.512,6.394,7.147,5.906l7.241-0.888
					c7.085-0.869,13.583-4.398,18.19-9.88l22.371-26.619c1.09-1.887,1.43-4.119,0.952-6.248l0,0
					c-1.083-4.821-5.956-7.751-10.692-6.428L493.487,707.958z"/>
				
					<line style="fill:none;stroke:#0E2244;stroke-width:1.5661;stroke-linecap:round;stroke-miterlimit:10;" x1="485.874" y1="725.625" x2="491.925" y2="728.374"/>
				
					<line style="fill:none;stroke:#0E2244;stroke-width:1.5661;stroke-linecap:round;stroke-miterlimit:10;" x1="487.631" y1="720.914" x2="493.682" y2="723.662"/>
				
					<line style="fill:none;stroke:#0E2244;stroke-width:1.5661;stroke-linecap:round;stroke-miterlimit:10;" x1="489.388" y1="716.399" x2="495.439" y2="719.147"/>
			</g>
		</g>
		<path style="opacity:0.65;fill:#F38154;" d="M545.533,562.469c-7.271,3.607-12.768,6.632-16.915,9.146
			c-0.128-0.383-0.199-0.852-0.199-1.42c0-8.99-13.265-17.98-22.255-19.401c-4.033-0.639-7.783,0.44-10.694,1.832
			c-3.579,1.69-5.88,3.849-5.88,3.849c-4.729-14.202-29.59-17.974-29.59-17.974s38.85-12.021,59.486-1.881
			c0.298,0.142,0.597,0.284,0.881,0.44C536.372,545.625,543.303,557.697,545.533,562.469z"/>
		<g>
			<g>
				<g>
					<path style="fill:#FAA887;" d="M420.482,431.235l-19.046-5.506c-1.391-0.402-2.2-1.869-1.798-3.26l0,0
						c0.402-1.391,1.869-2.2,3.26-1.798l19.046,5.506c1.391,0.402,2.2,1.869,1.798,3.26l0,0
						C423.34,430.828,421.873,431.637,420.482,431.235z"/>
					<path style="fill:#FAA887;" d="M413.646,435.724l-15.293-4.421c-1.391-0.402-2.2-1.869-1.798-3.26l0,0
						c0.402-1.391,1.869-2.2,3.26-1.798l15.293,4.421c1.391,0.402,2.2,1.869,1.798,3.26l0,0
						C416.504,435.317,415.037,436.126,413.646,435.724z"/>
					<path style="fill:#FAA887;" d="M416.412,442.982l-18.101-5.233c-1.391-0.402-2.2-1.869-1.798-3.26l0,0
						c0.402-1.391,1.869-2.2,3.26-1.798l18.101,5.233c1.391,0.402,2.2,1.869,1.798,3.26l0,0
						C419.27,442.575,417.803,443.384,416.412,442.982z"/>
				</g>
				<path style="fill:#FAA887;" d="M412.716,425.175c0.205,0.05,2.592,0.312,5.18,0.588c4.468,0.476,8.76,2.011,12.519,4.474
					l7.198,4.716c0,0-5.998,12.482-6.616,12.517c-15.105,0.846-19.345-6.488-19.345-6.488L412.716,425.175z"/>
			</g>
			<g>
				<path style="fill:#FAA887;" d="M543.039,375.844c0,0-8.851,23.692-17.799,42.95c-2.492,5.345-4.984,10.346-7.29,14.412
					c-0.674,1.176-1.36,2.322-2.082,3.42c-8.929,13.894-20.905,21.645-37.848,19.552c-0.155-0.019-49.883-8.48-49.883-8.48
					l2.86-17.248l51.44,4.451c5.573,0.76,13.804-7.024,17.378-12.321c0.279-0.409,0.529-0.807,0.747-1.182
					c1.69-2.911,3.537-6.504,5.477-10.514c11.606-24.096,26.212-63.563,26.212-63.563L543.039,375.844z"/>
			</g>
			<path style="fill:#F38154;" d="M506.04,410.884l19.2,7.91c-2.492,5.345-4.984,10.346-7.29,14.411
				c-0.675,1.176-1.36,2.322-2.082,3.421l-16.053-14.047L506.04,410.884z"/>
			<path style="fill:#2F3663;" d="M546.239,366.966c-0.3,2.425-0.84,4.833-1.647,7.195l-17.569,51.637l-6.65-2.582l-19.499-7.575
				l28.816-75.949c0.955-2.516,3.835-3.476,6.048-2.387c0.488,0.217,0.934,0.545,1.324,0.979
				C544.248,346.127,547.514,356.649,546.239,366.966z"/>
			<path style="fill:#FFFFFF;" d="M504.27,412.08l22.436,9.545c1.791,0.762,2.634,2.823,1.89,4.622l0,0
				c-0.758,1.832-2.87,2.689-4.689,1.901l-22.375-9.686c-1.618-0.701-2.455-2.503-1.944-4.191l0,0
				C500.186,412.292,502.369,411.271,504.27,412.08z"/>
		</g>
		<g>
			<path style="fill:#EF673B;" d="M570.011,340.614c-0.781,0.142-1.563,0.255-2.33,0.355c-25.733,3.252-49.695-14.629-54.147-40.889
				l-9.922-58.443l34.581-6.079l61.724-10.865l9.922,58.443C614.431,310.206,596.596,335.927,570.011,340.614z"/>
			<path style="fill:#CD4335;" d="M591.712,318.344c-1.814,9.26-11.709,17.327-24.031,22.625
				c-25.733,3.252-49.695-14.629-54.147-40.889l-9.922-58.443l34.581-6.079c21.547,5.468,45.145,17.512,46.736,20.196
				C585.683,257.018,596.596,293.49,591.712,318.344z"/>
			<path style="fill:#FAA887;" d="M563.04,324.32h4.657c6.049,0,10.998-4.949,10.998-10.998v-34.838
				c0-6.049-4.949-10.998-10.998-10.998h-4.657c-6.049,0-10.998,4.949-10.998,10.998v34.838
				C552.042,319.371,556.991,324.32,563.04,324.32z"/>
			<path style="fill:#EF673B;" d="M501.993,237.826c0.05,0.716,0.115,1.431,0.195,2.145c0.403,3.438,1.152,6.777,2.226,9.947
				c4.581,13.57,51.161-27.156,64.241-21.996c6.495,2.569,23.467,39.843,24.113,38.594c3.944-7.62,8.487-26.695,7.842-35.871
				c-1.818-25.88-25.96-45.15-51.628-44.507c-0.733,0.022-1.464,0.059-2.195,0.11c-16.22,1.14-29.993,10.154-37.868,23.058
				c-0.013,0.016-0.013,0.016-0.013,0.016c-2.304,3.789-4.099,7.924-5.305,12.282C502.183,226.74,501.599,232.215,501.993,237.826z"
				/>
			<g>
				<path style="fill:#FFCAC1;" d="M566.323,247.741c0.057,1.051,0.298,2.059,0.725,2.982c0.483,1.108,1.221,2.287,2.13,3.11
					c1.647,1.477,3.849,2.514,6.235,2.386l5.127-0.27l3.934-0.199l-0.582-11.674h-0.014l-0.1-2.159l-0.085-1.676l-0.085-1.534
					l-0.014-0.397h-0.014l-9.047,0.468c-2.286,0.114-4.317,1.108-5.794,2.628c-0.895,0.923-1.577,2.06-1.989,3.295
					C566.408,245.667,566.266,246.676,566.323,247.741z"/>
				<path style="fill:#FFCAB0;" d="M584.746,262.288c0.014,0.454,0,0.895-0.014,1.349c0,0.142-0.014,0.284-0.029,0.427
					c-0.227,5.652-1.704,11.034-4.147,15.878c-0.113,0.241-0.241,0.483-0.369,0.724c-4.005,7.528-10.382,13.663-18.208,17.37
					c-0.014,0.014-0.028,0.014-0.028,0.014c-3.025,1.434-6.278,2.499-9.686,3.125c-1.25,0.227-2.5,0.412-3.778,0.54
					c-0.511,0.042-1.023,0.071-1.548,0.099c-1.875,0.085-3.707,0.071-5.525-0.113c-0.511-0.029-1.037-0.071-1.548-0.157
					c-16.972-2.102-30.805-14.898-34.043-31.572c-0.341-1.775-0.582-3.621-0.667-5.482l-0.142-2.827l-0.966-18.875
					c-0.156-2.84-0.114-5.609,0.213-8.294c0.241-2.087,0.682-4.133,1.363-6.121c1.761-5.212,4.175-9.927,7.854-13.946
					c6.86-7.527,16.702-12.456,27.681-13.023c8.209-0.426,15.992,1.662,22.624,5.553c0.952,0.568,1.889,1.179,2.798,1.818
					c4.545,3.196,8.394,7.328,11.248,12.1c0,0,0.014,0.014,0.014,0.028c0.753,1.25,1.449,2.571,2.045,3.906
					c0.113,0.241,0.213,0.468,0.312,0.739c0.725,1.619,1.378,3.309,1.903,5.042c0.781,2.471,1.321,5.056,1.477,7.726l0.028,0.398
					l0.085,1.533l0.085,1.676l0.114,2.145v0.014l0.014,0.114l0.014,0.369l0.057,0.994l0.497,10.198l0.185,3.365l0.057,1.279v0.284
					C584.746,261.223,584.774,261.762,584.746,262.288z"/>
				<path style="fill:#FFCAC1;" d="M590.64,252.559c0.185,3.721-2.372,7.157-5.922,8.081c-0.327,0.085-0.667,0.156-1.023,0.198
					c-0.156,0.043-0.341,0.043-0.526,0.057l-2.429,0.128l-0.27-5.071l-0.057-1.136l-0.469-9.203l2.443-0.128
					c0.227-0.015,0.426-0.015,0.639,0h0.014c0.313,0,0.625,0.028,0.923,0.071c0,0,0.014-0.014,0.014,0
					c1.548,0.184,2.968,0.795,4.076,1.789C589.546,248.682,590.526,250.443,590.64,252.559z"/>
			</g>
			<path style="fill:#FAA887;" d="M584.717,260.64v0.042c0.028,0.54,0.057,1.08,0.028,1.605c0.014,0.454,0,0.895-0.014,1.349
				c0,0.142-0.014,0.284-0.029,0.427c-0.071,0.028-0.142,0.028-0.213,0.042c-0.185,5.639-1.562,10.992-3.934,15.835
				c-0.113,0.241-0.241,0.483-0.369,0.724c-3.977,7.741-10.453,14.061-18.449,17.839c-0.014,0.014-0.028,0.014-0.028,0.014
				c-6.817,4.09-7.257,3.494-7.257,3.494s-3.281-0.426-2.841-0.71c2.769-1.789,9.927-8.635,14.401-20.466
				c2.442-6.433,3.011-17.043,2.925-26.53v-0.71c-0.043-4.346-0.241-8.437-0.44-11.717c0-0.057,0-0.128-0.015-0.184
				c-0.27-4.531-0.568-7.485-0.568-7.485c3.11-6.717,8.578-6.149,13.947-3.153c0.739,2.329,1.264,4.758,1.449,7.272
				c0.014,0.156,0.014,0.298,0.029,0.454h0.014l0.014,0.397l0.085,1.534l0.085,1.676l0.114,2.145v0.014c0.085,0,0.184,0,0.27,0.014
				l0.057,0.994c1.548,0.184,2.968,0.795,4.076,1.789c1.491,1.336,2.471,3.096,2.584,5.213
				C590.824,256.28,588.268,259.716,584.717,260.64z"/>
			<path style="fill:#EF673B;" d="M516.95,221.622c-0.625,3.444,0.578,6.708,2.789,8.919c1.818,1.818,4.346,2.954,7.101,2.954
				c0,0,39.447,2.948,45.135,15.161l4.221,7.763c0.62,1.141,1.862,1.82,3.157,1.722c0.024-0.002,0.048-0.004,0.072-0.006
				c1.57-0.122,2.834-1.31,3.035-2.871c0.98-7.599,5.367-29.425,5.367-31.129c0-2.77-2.587-5.978-4.405-7.81
				c-1.818-1.818-4.346-2.954-7.101-2.954l-49.067,0C522.312,213.371,517.832,216.76,516.95,221.622z"/>
			<path style="fill:#F02B2B;" d="M534.569,279.524h-6.273c-0.846,0-1.539-0.692-1.539-1.539l0,0c0-0.846,0.692-1.539,1.539-1.539
				h6.273c0.846,0,1.539,0.692,1.539,1.539l0,0C536.107,278.832,535.415,279.524,534.569,279.524z"/>
			<path style="fill:#F02B2B;" d="M534.377,282.218h-4.402c-1.103,0-2.005-0.902-2.005-2.005l0,0c0-1.103,0.902-2.005,2.005-2.005
				h4.402c1.103,0,2.005,0.902,2.005,2.005l0,0C536.381,281.315,535.479,282.218,534.377,282.218z"/>
			<path style="fill:#FAA887;" d="M524.745,267.452c0,0,0.46,2.857,4.497,2.722c3.551-0.118,3.906-2.604,3.906-2.604
				L524.745,267.452z"/>
			<path style="fill:#2F3663;" d="M590.195,262.955c0,2.353-1.908,4.261-4.261,4.261c-2.353,0-4.261-1.908-4.261-4.261
				c0-2.353,1.908-4.261,4.261-4.261C588.287,258.694,590.195,260.602,590.195,262.955z"/>
			<path style="fill:#EF673B;" d="M519.656,219.993c0,0-11.978-0.475-16.818,13.787c0,0-2.71-14.497,17.173-29.41
				c19.883-14.912,55.034-2.485,57.875,3.906c2.84,6.391,2.485,11.362,2.485,11.362L519.656,219.993z"/>
			<g>
				<path style="fill:none;stroke:#EF673B;stroke-width:2.8405;stroke-linecap:round;stroke-miterlimit:10;" d="M537.764,245.202
					c0,0,6.746-3.196,13.847,1.065"/>
				<path style="fill:none;stroke:#EF673B;stroke-width:2.8405;stroke-linecap:round;stroke-miterlimit:10;" d="M509.715,244.314
					c0,0,6.746-3.196,13.847,1.065"/>
			</g>
			<path style="fill:#0E2244;" d="M544.272,257.965L544.272,257.965c0.976,0,1.775-0.799,1.775-1.775v-3.284
				c0-0.976-0.799-1.775-1.775-1.775l0,0c-0.977,0-1.775,0.799-1.775,1.775v3.284C542.497,257.166,543.295,257.965,544.272,257.965z
				"/>
			<path style="fill:#0E2244;" d="M516.814,257.965L516.814,257.965c0.976,0,1.775-0.799,1.775-1.775v-3.284
				c0-0.976-0.799-1.775-1.775-1.775l0,0c-0.976,0-1.775,0.799-1.775,1.775v3.284C515.039,257.166,515.838,257.965,516.814,257.965z
				"/>
		</g>
		<path style="fill:#122A4C;" d="M617.894,383.206l-7.584,127.338h-0.114l-25.962-1.122l-61.979-2.656l0.029-8.692l0.454-117.24
			c1.889-33.134,11.547-65.672,37.395-65.672h15.822c2.784,0,5.496,0.242,8.138,0.696c4.033,0.71,7.683,2.244,10.978,4.502
			C609.727,330.388,617.113,354.603,617.894,383.206z"/>
		<g>
			<path style="fill:#4257A4;" d="M555.872,430.543c0,0,4.538-36.303,7.575-53.495c6.983-39.53,19.41-60.123,19.41-60.123
				l-25.564-6.214l-14.912,4.793c0,0-1.065,22.369,2.604,57.756C546.482,387.707,555.872,430.543,555.872,430.543z"/>
		</g>
		<g>
			<g>
				<path style="fill:#A7A7B7;" d="M322.3,460.455h92.979c6.083,0,12.97-0.614,10.388-6.121l-35.297-74.889
					c-2.827-6.032-8.888-9.884-15.549-9.884h-85.602c-4.435,0-7.365,4.61-5.483,8.626L322.3,460.455z"/>
				<g>
					<g>
						<path style="fill:#616172;" d="M416.267,463.692h66.298c2.677,0,4.868-2.191,4.868-4.868v0c0-2.677-2.191-4.868-4.868-4.868
							h-66.298c-2.677,0-4.868,2.191-4.868,4.868v0C411.399,461.501,413.59,463.692,416.267,463.692z"/>
					</g>
					<g>
						
							<rect x="440.092" y="457.183" transform="matrix(-1 -1.224647e-16 1.224647e-16 -1 889.653 917.2057)" style="fill:#0E2244;" width="9.468" height="2.841"/>
						
							<rect x="452.401" y="457.183" transform="matrix(-1 -1.224647e-16 1.224647e-16 -1 911.6666 917.2057)" style="fill:#0E2244;" width="6.864" height="2.841"/>
					</g>
				</g>
				<path style="fill:#494956;" d="M325.033,463.455h93.197c3.345,0,5.556-3.478,4.136-6.507l-34.924-74.504
					c-2.827-6.032-8.888-9.884-15.55-9.884h-85.602c-4.435,0-7.365,4.61-5.483,8.626l36.161,77.144
					C318.436,461.458,321.579,463.455,325.033,463.455z"/>
			</g>
			<path style="fill:#FFFFFF;" d="M345.394,423.318c2.209,5.169,6.339,8.36,9.224,7.127c2.885-1.233,3.433-6.423,1.224-11.592
				c-2.209-5.169-6.339-8.36-9.224-7.127C343.732,412.959,343.185,418.148,345.394,423.318z"/>
		</g>
		
			<line style="opacity:0.56;fill:none;stroke:#FFFFFF;stroke-width:1.4202;stroke-miterlimit:10;" x1="557.209" y1="310.968" x2="555.872" y2="430.543"/>
		<path style="fill:#FFFFFF;" d="M582.857,317.279l-16.688,1.42c-4.902,0-8.877-3.974-8.877-8.876l0,0h22.999
			c1.916,0,3.388,1.697,3.117,3.594L582.857,317.279z"/>
		<path style="fill:#FFFFFF;" d="M542.38,319.764l6.036-1.065c4.902,0,8.876-3.974,8.876-8.876l0,0l-11.637,0.131
			c-2.244,0.025-3.989,1.958-3.786,4.193L542.38,319.764z"/>
		<path style="fill:#122A4C;" d="M543.09,576.117l0.639-0.256C543.545,576.273,543.09,576.117,543.09,576.117z"/>
		<path style="fill:#0E2244;" d="M587.487,557.81l-43.758,18.051c0.412-0.838-0.298-4.076-8.45-16.077
			c-1.094-1.605-2.613-3.082-4.488-4.46C511.859,541.42,459,538.751,459,538.751c13.492-12.782,59.236-31.515,59.236-31.515
			l2.84-9.232l1.207,0.071l65.186-2.055l22.371,6.955l0.355,7.57l0.511,10.723C611.474,537.131,602.172,551.745,587.487,557.81z"/>
		<g>
			<path style="fill:#FFFFFF;" d="M562.5,323.907c0,0.98-0.53,1.775-1.184,1.775c-0.654,0-1.184-0.795-1.184-1.775
				c0-0.98,0.53-1.775,1.184-1.775C561.97,322.131,562.5,322.926,562.5,323.907z"/>
			<path style="fill:#FFFFFF;" d="M562.5,334.282c0,0.98-0.53,1.775-1.184,1.775c-0.654,0-1.184-0.795-1.184-1.775
				c0-0.98,0.53-1.775,1.184-1.775C561.97,332.507,562.5,333.302,562.5,334.282z"/>
			<path style="fill:#FFFFFF;" d="M562.5,344.658c0,0.98-0.53,1.775-1.184,1.775c-0.654,0-1.184-0.795-1.184-1.775
				c0-0.98,0.53-1.775,1.184-1.775C561.97,342.883,562.5,343.677,562.5,344.658z"/>
			<path style="fill:#FFFFFF;" d="M562.5,355.034c0,0.98-0.53,1.775-1.184,1.775c-0.654,0-1.184-0.795-1.184-1.775
				c0-0.98,0.53-1.775,1.184-1.775C561.97,353.258,562.5,354.053,562.5,355.034z"/>
		</g>
		<path style="fill:#122A4C;" d="M543.09,576.117l0.639-0.256C543.545,576.273,543.09,576.117,543.09,576.117z"/>
		<path style="fill:#0E2244;" d="M610.707,521.267c0.767,15.864-8.535,30.478-23.221,36.543l-43.758,18.051
			c0.412-0.838-0.298-4.076-8.45-16.077c-1.094-1.605-2.613-3.082-4.488-4.46l-0.014-0.27c0,0,23.675-7.584,38.829-18.946
			c8.863-6.647,12.541-14.586,14.628-26.686c0.426-2.429,0.781-5.028,1.108-7.825c0.81-7.045,1.406-15.297,2.244-25.138
			c2.84-33.134,6.078-148.684,6.632-152.434c0.199-1.349,0.483-2.556,0.852-3.664c14.657,10.027,22.042,34.242,22.823,62.845
			l-7.584,127.338h-0.114L610.707,521.267z"/>
		<g>
			<g>
				<g>
					<path style="fill:#FFCAB0;" d="M493.935,444.797l-19.578-3.129c-1.43-0.229-2.413-1.585-2.184-3.015l0,0
						c0.229-1.43,1.585-2.413,3.015-2.184l19.578,3.129c1.43,0.229,2.413,1.585,2.184,3.015l0,0
						C496.721,444.043,495.365,445.026,493.935,444.797z"/>
					<path style="fill:#FFCAB0;" d="M487.701,450.091l-15.72-2.513c-1.43-0.229-2.413-1.585-2.184-3.015l0,0
						c0.228-1.43,1.585-2.412,3.015-2.184l15.72,2.513c1.43,0.229,2.413,1.585,2.184,3.015l0,0
						C490.488,449.336,489.131,450.319,487.701,450.091z"/>
					<path style="fill:#FFCAB0;" d="M491.335,456.955l-18.606-2.974c-1.43-0.228-2.413-1.585-2.184-3.015h0
						c0.229-1.43,1.585-2.413,3.015-2.184l18.606,2.974c1.43,0.229,2.413,1.585,2.184,3.015v0
						C494.122,456.201,492.765,457.184,491.335,456.955z"/>
				</g>
				<path style="fill:#FFCAB0;" d="M485.484,439.736c0.21,0.024,2.611-0.008,5.213-0.052c4.493-0.075,8.94,0.922,12.973,2.905
					l7.722,3.798c0,0-4.423,13.123-5.032,13.233c-14.887,2.691-19.994-4.068-19.994-4.068L485.484,439.736z"/>
			</g>
			<g>
				<path style="fill:#FFCAB0;" d="M608.776,374.798c0,0-5.88,24.598-12.399,44.808c-1.818,5.61-3.678,10.879-5.468,15.197
					c-0.525,1.25-1.065,2.471-1.647,3.65c-7.158,14.884-18.094,24.045-35.165,24.045c-0.156,0-50.546-2.301-50.546-2.301
					l0.724-17.469l51.597-1.889c5.624,0.071,12.839-8.664,15.736-14.358c0.227-0.44,0.426-0.866,0.596-1.264
					c1.321-3.096,2.713-6.888,4.147-11.106c8.564-25.337,18.222-66.297,18.222-66.297L608.776,374.798z"/>
			</g>
			<path style="fill:#FAA887;" d="M576.352,414.111l20.025,5.496c-1.818,5.61-3.678,10.879-5.468,15.197
				c-0.526,1.25-1.065,2.471-1.647,3.65l-17.654-11.973L576.352,414.111z"/>
			<path style="fill:#4257A4;" d="M610.864,365.595c0,2.443-0.241,4.899-0.753,7.342l-11.106,53.401l-6.917-1.747l-20.281-5.127
				l19.287-78.908c0.639-2.614,3.38-3.92,5.709-3.11c0.511,0.156,0.994,0.426,1.434,0.809
				C606.333,345.158,610.864,355.199,610.864,365.595z"/>
			<path style="fill:#FFFFFF;" d="M574.743,415.514l23.437,6.722c1.871,0.536,2.96,2.479,2.443,4.355l0,0
				c-0.527,1.911-2.518,3.02-4.421,2.461l-23.394-6.87c-1.692-0.497-2.743-2.183-2.443-3.921l0,0
				C570.715,416.225,572.756,414.944,574.743,415.514z"/>
		</g>
	</g>
	
		<rect x="604.415" y="486.899" transform="matrix(-1 -1.224647e-16 1.224647e-16 -1 1233.5269 1241.342)" style="fill:#9A92AE;" width="24.697" height="267.544"/>
	
		<rect x="168.112" y="486.899" transform="matrix(-1 -1.224647e-16 1.224647e-16 -1 360.9203 1241.342)" style="fill:#9A92AE;" width="24.697" height="267.544"/>
	<polygon style="fill:#464C6B;" points="168.112,508.001 192.809,533.11 192.809,476.185 168.112,476.185 	"/>
	<polygon style="fill:#464C6B;" points="604.415,508.001 629.112,533.11 629.112,476.185 604.415,476.185 	"/>
	<g>
		<path style="fill:#C96239;" d="M650.247,495.955H126.762v-22.48c0-6.008,4.87-10.878,10.878-10.878h501.729
			c6.008,0,10.878,4.87,10.878,10.878V495.955z"/>
	</g>
</g>
<polygon style="fill:#9A92AE;" points="182.333,576.801 235,576.801 209.64,552.101 186,552.101 "/>
<polygon style="fill:#9A92AE;" points="625,576.801 677.667,576.801 652.307,552.101 628.667,552.101 "/>
<g>
	<g>
		<path style="fill:#4257A4;" d="M723.7,440.891v23.11h-71.74c-5.01,0-9.29-3.2-10.89-7.67c-0.43-1.21-0.67-2.52-0.67-3.89
			c0-3.18,1.29-6.07,3.38-8.17c2.1-2.09,4.99-3.38,8.18-3.38H723.7z"/>
		<path style="fill:#2F447C;" d="M696.67,456.331v7.67h-44.71c-5.01,0-9.29-3.2-10.89-7.67H696.67z"/>
		<path style="fill:#0E2244;" d="M750.815,440.887v23.116l-71.739,0c-6.38,0-11.558-5.178-11.558-11.558
			c0-3.184,1.294-6.077,3.382-8.177c2.1-2.087,4.993-3.382,8.177-3.382L750.815,440.887z"/>
		<path style="fill:#E9EBED;" d="M750.815,444.849v14.821l-68.622,0c-4.095,0-7.41-3.315-7.41-7.41c0-2.047,0.832-3.896,2.167-5.244
			c1.347-1.334,3.197-2.166,5.244-2.166L750.815,444.849z"/>
	</g>
	<g>
		<path style="fill:#FBAF3D;" d="M725.261,394.951v23.117l-71.739,0c-6.38,0-11.558-5.178-11.558-11.558
			c0-3.184,1.294-6.076,3.382-8.177c2.1-2.087,4.993-3.382,8.177-3.382L725.261,394.951z"/>
		<path style="fill:#FFD72E;" d="M698.003,402.667v-7.67h-44.71c-5.01,0-9.29,3.2-10.89,7.67H698.003z"/>
		<path style="fill:#F38154;" d="M750.815,394.951v23.116l-71.739,0c-6.38,0-11.558-5.178-11.558-11.558
			c0-3.184,1.294-6.076,3.382-8.177c2.1-2.087,4.993-3.382,8.177-3.382L750.815,394.951z"/>
		<path style="fill:#E9EBED;" d="M750.815,398.914v14.821l-68.622,0c-4.095,0-7.41-3.315-7.41-7.41c0-2.047,0.832-3.896,2.167-5.244
			c1.347-1.335,3.197-2.167,5.244-2.167L750.815,398.914z"/>
	</g>
	<g>
		<path style="fill:#A2CC3B;" d="M729.43,418.201v23.12h-71.74c-6.38,0-11.55-5.18-11.55-11.56c0-1.96,0.49-3.81,1.35-5.43
			c0.54-1.01,1.23-1.94,2.03-2.75c2.1-2.09,4.99-3.38,8.17-3.38H729.43z"/>
		<path style="fill:#709B2C;" d="M718.33,418.201v6.13h-70.84c0.54-1.01,1.23-1.94,2.03-2.75c2.1-2.09,4.99-3.38,8.17-3.38H718.33z"
			/>
		<path style="fill:#709B2C;" d="M718.33,441.331v-6.13h-70.84c0.54,1.01,1.23,1.94,2.03,2.75c2.1,2.09,4.99,3.38,8.17,3.38H718.33z
			"/>
		<path style="fill:#4C842F;" d="M764.895,418.201l0,23.116l-71.739,0c-6.38,0-11.558-5.178-11.558-11.558
			c0-3.184,1.294-6.077,3.382-8.177c2.1-2.087,4.993-3.382,8.177-3.382L764.895,418.201z"/>
		<path style="fill:#E9EBED;" d="M764.895,422.164l0,14.821l-68.622,0c-4.095,0-7.41-3.315-7.41-7.41
			c0-2.047,0.832-3.896,2.167-5.244c1.347-1.335,3.197-2.167,5.244-2.167L764.895,422.164z"/>
	</g>
</g>
</svg>
